<svg width="55" height="55" viewBox="0 0 55 55" fill="none" xmlns="http://www.w3.org/2000/svg">
<circle cx="27.4993" cy="27.9412" r="27" fill="url(#paint0_linear_1_441)"/>
<path d="M32.4993 21.9412H22.4993C21.8993 21.9412 21.4993 22.3412 21.4993 22.9412C21.4993 23.5412 21.8993 23.9412 22.4993 23.9412H30.0993L21.7993 32.2412C21.3993 32.6412 21.3993 33.2412 21.7993 33.6412C22.1993 34.0412 22.7993 34.0412 23.1993 33.6412L31.4993 25.3412V32.9412C31.4993 33.5412 31.8993 33.9412 32.4993 33.9412C33.0993 33.9412 33.4993 33.5412 33.4993 32.9412V22.9412C33.4993 22.3412 33.0993 21.9412 32.4993 21.9412Z" fill="white"/>
<defs>
<linearGradient id="paint0_linear_1_441" x1="54.4993" y1="27.9412" x2="0.499268" y2="27.9412" gradientUnits="userSpaceOnUse">
<stop stop-color="#38EF7D"/>
<stop offset="1" stop-color="#11998E"/>
</linearGradient>
</defs>
</svg>
