<svg width="91" height="81" viewBox="0 0 91 81" fill="none" xmlns="http://www.w3.org/2000/svg">
<circle cx="39.999" cy="40.9412" r="40" fill="#E8E8E8"/>
<circle cx="50.999" cy="40.9412" r="40" fill="#F5F3F5"/>
<path d="M24.7492 42.82C24.7492 43.8587 25.5855 44.695 26.6242 44.695H54.7492V54.085C54.7492 55.3225 55.8776 56.095 56.9314 55.915C57.3044 55.8479 57.6479 55.6672 57.9142 55.3975L72.3777 40.9375C72.8563 40.4531 73.1248 39.7997 73.1248 39.1187C73.1248 38.4378 72.8563 37.7843 72.3777 37.3L57.9028 22.7312C56.7703 21.5912 54.7529 22.3937 54.7529 23.995V33.445H26.6279C25.5854 33.445 24.7529 34.2812 24.7529 35.32L24.7492 42.82Z" fill="url(#paint0_linear_1_432)"/>
<defs>
<linearGradient id="paint0_linear_1_432" x1="48.937" y1="22.196" x2="48.937" y2="55.9409" gradientUnits="userSpaceOnUse">
<stop stop-color="#38EF7D"/>
<stop offset="1" stop-color="#11998E"/>
</linearGradient>
</defs>
</svg>
