<svg width="500" height="551" viewBox="0 0 500 551" fill="none" xmlns="http://www.w3.org/2000/svg">
<g filter="url(#filter0_d_1_380)">
<rect x="49.999" y="46.9412" width="398.933" height="450" rx="20" fill="#E1F0DA" fill-opacity="0.2"/>
<path opacity="0.6" d="M417.999 46.9412C429.2 46.9412 434.8 46.9412 439.078 49.121C442.842 51.0385 445.901 54.0981 447.819 57.8614C449.999 62.1396 449.999 67.7401 449.999 78.9412V192.561C449.999 207.187 449.999 214.5 444.543 220.28C440.602 224.455 431.767 227.284 426.134 226.175C418.336 224.639 415.073 220.068 408.549 210.925C402.049 201.816 396.593 191.925 392.401 181.473C387.092 168.239 381.81 152.178 368.391 148.252C357.346 145.04 346.222 151.931 335.844 156.955C325.44 161.98 311.22 164.533 303.991 155.363C291.159 139.054 317.916 111.818 305.218 95.4001C297.214 85.0493 280.888 89.3049 269.229 83.7864C257.028 77.9848 247.431 61.4734 251.469 48.3592C251.735 47.4932 252.56 46.9412 253.466 46.9412H260.477H294.03H347.614H417.999Z" fill="#E1F0DA"/>
<path opacity="0.6" d="M49.999 464.94C49.999 476.141 49.999 481.742 52.1789 486.02C54.0964 489.783 57.156 492.843 60.9192 494.76C65.1974 496.94 70.798 496.94 81.999 496.94H190.424C205.266 496.94 212.687 496.94 218.419 491.694C222.589 487.879 225.559 479.365 224.667 473.784C223.44 466.111 218.928 462.527 209.903 455.359C200.627 447.992 190.472 441.846 179.699 437.197C166.941 431.69 151.456 426.211 147.671 412.292C144.574 400.836 151.218 389.297 156.062 378.533C160.906 367.741 163.368 352.992 154.527 345.493C138.804 332.183 112.546 359.938 96.7176 346.766C86.7386 338.465 90.8414 321.53 85.521 309.437C79.9415 296.812 64.0873 286.875 51.4592 290.984C50.5612 291.276 49.999 292.142 49.999 293.087V300.359V335.161L49.999 390.741V464.94Z" fill="#E1F0DA"/>
</g>
<defs>
<filter id="filter0_d_1_380" x="-0.000976562" y="0.941162" width="500" height="550" filterUnits="userSpaceOnUse" color-interpolation-filters="sRGB">
<feFlood flood-opacity="0" result="BackgroundImageFix"/>
<feColorMatrix in="SourceAlpha" type="matrix" values="0 0 0 0 0 0 0 0 0 0 0 0 0 0 0 0 0 0 127 0" result="hardAlpha"/>
<feOffset dy="4"/>
<feGaussianBlur stdDeviation="25"/>
<feComposite in2="hardAlpha" operator="out"/>
<feColorMatrix type="matrix" values="0 0 0 0 0 0 0 0 0 0 0 0 0 0 0 0 0 0 0.1 0"/>
<feBlend mode="normal" in2="BackgroundImageFix" result="effect1_dropShadow_1_380"/>
<feBlend mode="normal" in="SourceGraphic" in2="effect1_dropShadow_1_380" result="shape"/>
</filter>
</defs>
</svg>
